# Blender 5.1.2
# www.blender.org
mtllib Untitled.mtl
o Cube
v 59.973419 -1.339443 -60.100578
v 60.000000 -2.339443 -60.000000
v 60.000000 -1.339443 60.000015
v 60.000000 -2.339443 60.000015
v -59.999992 -1.339443 -60.000000
v -59.999992 -2.339443 -60.000000
v -59.999992 -1.339443 60.000015
v -59.999992 -2.339443 60.000015
v 60.000000 -1.339443 22.090088
v 24.310942 -1.339443 -60.000000
v 25.102093 -1.339443 22.090088
v 21.373211 20.820251 -58.796963
v 60.000000 22.367193 -60.000000
v 60.000000 22.367193 -28.055412
v 19.556276 21.594034 -27.370340
v 20.773855 16.559010 -16.511347
v 25.102098 -1.339443 -30.371574
v 22.363472 14.935427 -59.116444
v 21.220541 11.099656 -33.781036
v 20.537527 13.784483 -25.288128
v 23.010643 11.089479 -59.325237
v 20.884157 21.028526 -50.338028
v 20.081253 21.370461 -36.450623
v 25.102100 -1.339443 -45.250790
v 20.794291 13.073500 -46.818321
v 21.932468 14.130793 -53.801781
v 20.776983 18.238180 -51.739197
v 20.213058 19.179132 -33.226154
v 20.156321 18.663069 -43.379894
v -36.055611 -1.339462 -14.260972
v -36.055611 35.988998 -14.260972
v -36.055611 -1.339462 -25.172531
v -36.055611 35.988998 -25.172531
v -26.431381 -1.339462 -14.260972
v -26.431381 35.988998 -14.260972
v -26.431381 -1.339462 -25.172531
v -26.431381 35.988998 -25.172531
v -36.055611 35.988998 -19.939041
v -26.431381 32.007393 -14.260972
v -26.431381 29.531992 -14.260972
v -26.431381 24.323296 -14.260972
v -26.431381 20.106297 -14.260972
v -26.431381 15.788132 -14.260972
v -26.431381 10.227083 -14.260972
v -26.431381 4.224640 -14.260972
v -26.431381 2.288242 -14.260972
v -26.431381 33.319405 -25.172531
v -25.921171 27.820869 -22.199793
v -26.431381 23.496674 -25.172531
v -26.431381 16.186556 -25.172531
v -26.431381 11.939422 -25.172531
v -26.431381 2.205247 -25.172531
v -36.055611 33.229412 -25.172531
v -36.055611 25.383579 -25.172531
v -36.055611 17.652950 -25.172531
v -36.710323 11.508455 -26.038439
v -36.055611 3.141190 -25.172531
v -36.055611 0.536057 -14.260972
v -36.055611 3.866040 -14.260972
v -36.055611 19.705723 -15.689860
v -36.055611 23.521238 -14.260972
v -36.055611 28.141140 -15.983326
v -36.055611 34.525127 -14.260972
v -26.431381 35.988998 -20.476290
v -26.812149 22.015772 -20.406420
v -25.793488 12.694548 -18.778799
v -26.064716 27.476980 -17.435577
v -36.345146 28.548031 -21.395369
v -34.569904 24.449127 -14.260972
v -32.451035 6.248451 -15.181516
v -31.996161 18.053303 -13.487852
v -29.272682 11.285367 -13.550060
v -28.339355 8.966026 -14.260971
v -30.247911 23.490751 -26.641459
v -30.397032 30.049450 -25.769215
v -30.316254 21.137823 -25.172531
v -31.811678 22.520849 -25.621838
v -33.370777 16.059067 -25.172531
v -31.963041 15.342854 -25.900890
v -27.918432 28.656549 -24.235367
v -36.055611 14.072937 -13.102080
v -35.290848 6.422906 -18.201271
v -36.508659 9.154460 -22.410776
v -36.432117 9.286958 -22.997353
v -36.055611 -1.339462 -19.690512
v -36.055611 23.399769 -25.172531
v -36.055611 21.069195 -25.172531
v -36.903465 25.734844 -19.125553
v -36.292004 11.506543 -18.513428
v -37.023918 16.860443 -18.608444
v 23.832279 2.729900 -31.486952
v 25.102097 -1.339443 -17.450945
v 25.102095 -1.339443 2.727703
v 23.653622 4.650387 9.171875
v 22.273352 10.358179 -3.138070
v 20.667648 15.312132 -20.455648
v 22.831245 8.051134 -5.960907
v 23.767057 4.181305 -0.040677
v 23.906973 3.602716 -11.403862
v 23.881289 3.302602 -18.309359
v 21.767778 11.200894 -19.720905
vn -0.9929 -0.1068 0.0533
vn -0.0000 -0.0000 1.0000
vn -1.0000 -0.0000 -0.0000
vn -0.0000 -1.0000 -0.0000
vn 1.0000 0.0091 -0.0001
vn -0.0004 -0.0150 -0.9999
vn -0.0296 0.9995 -0.0131
vn -0.0000 1.0000 -0.0000
vn 1.0000 -0.0008 -0.0002
vn -0.0182 0.0271 -0.9995
vn -0.0054 0.9055 0.4243
vn -0.9869 -0.1158 -0.1124
vn -0.9760 -0.2160 0.0286
vn -0.9587 -0.2795 -0.0519
vn -0.9970 0.0625 -0.0455
vn -0.9923 -0.1234 0.0047
vn -0.9925 -0.1226 -0.0031
vn -0.9863 -0.1156 -0.1178
vn -0.9958 0.0660 -0.0633
vn -0.0000 -0.0000 -1.0000
vn 1.0000 -0.0000 -0.0000
vn 0.9983 -0.0464 0.0341
vn 0.9902 -0.0000 0.1398
vn 0.9972 -0.0656 -0.0371
vn 0.9934 -0.0000 0.1147
vn 0.9990 0.0310 0.0322
vn 0.9997 -0.0215 0.0102
vn 0.9968 -0.0000 0.0796
vn 0.9941 0.1022 -0.0367
vn 0.9951 -0.0000 -0.0993
vn -0.9958 0.0622 0.0667
vn -0.9971 -0.0000 -0.0764
vn -0.9994 0.0337 -0.0040
vn -0.9931 0.0379 0.1109
vn 0.2474 -0.0000 0.9689
vn 0.0326 -0.0380 0.9987
vn -0.3820 -0.1548 0.9111
vn -0.2132 0.3413 0.9155
vn -0.0377 -0.1440 0.9889
vn -0.2024 0.2179 0.9548
vn 0.0472 0.0443 0.9979
vn 0.2206 -0.0617 0.9734
vn -0.0906 0.0829 0.9924
vn -0.0161 -0.2989 0.9541
vn 0.1594 0.0551 0.9857
vn 0.0808 0.0341 -0.9961
vn 0.3533 0.1763 -0.9187
vn 0.5991 -0.3370 -0.7262
vn -0.0006 0.0687 -0.9976
vn -0.1049 -0.0000 -0.9945
vn -0.0371 0.0379 -0.9986
vn 0.0778 0.1310 -0.9883
vn 0.0348 -0.0072 -0.9994
vn -0.0360 -0.0607 -0.9975
vn -0.0668 0.0402 -0.9970
vn -0.2237 -0.5115 -0.8297
vn 0.3765 -0.2965 -0.8777
vn 0.7145 0.0036 -0.6996
vn 0.0782 -0.0855 -0.9933
vn -0.9697 0.0212 0.2434
vn -0.9991 -0.0416 -0.0089
vn -0.9964 -0.0262 -0.0803
vn -0.9854 -0.1328 0.1060
vn -0.9965 -0.0621 -0.0562
vn -0.9699 -0.1810 0.1631
vn -0.9640 0.0633 0.2582
vn -0.9888 0.0482 -0.1414
vn -0.9899 0.0041 -0.1419
vn -0.9720 -0.2350 -0.0000
vn -0.9619 -0.2732 0.0078
vn -0.9666 -0.2560 0.0147
vn -0.9468 -0.3162 0.0607
vn -0.9677 -0.2518 0.0145
vn -0.9668 -0.2549 0.0158
vt 0.710390 0.500000
vt 0.710390 0.523676
vt 0.375000 0.750000
vt 0.625000 0.750000
vt 0.625000 1.000000
vt 0.375000 1.000000
vt 0.375000 0.000000
vt 0.625000 0.000000
vt 0.625000 0.250000
vt 0.375000 0.250000
vt 0.125000 0.500000
vt 0.375000 0.500000
vt 0.125000 0.750000
vt 0.625000 0.500000
vt 0.625000 0.631773
vt 0.625000 0.414610
vt 0.710390 0.535469
vt 0.710390 0.593699
vt 0.710390 0.631773
vt 0.710390 0.600692
vt 0.710390 0.568301
vt 0.710390 0.547560
vt 0.875000 0.500000
vt 0.875000 0.750000
vt 0.710390 0.512940
vt 0.710390 0.524481
vt 0.710390 0.615766
vt 0.710390 0.596194
vt 0.710390 0.615291
vt 0.710390 0.552181
vt 0.710390 0.561684
vt 0.710390 0.529942
vt 0.710390 0.554115
vt 0.710390 0.592144
vt 0.710390 0.596153
vt 0.387561 0.000000
vt 0.409863 0.000000
vt 0.426987 0.083641
vt 0.375000 0.124399
vt 0.405008 0.250000
vt 0.463933 0.500000
vt 0.398740 0.500000
vt 0.399296 0.750000
vt 0.387561 1.000000
vt 0.125000 0.625601
vt 0.875000 0.619907
vt 0.625000 0.607598
vt 0.468990 0.646490
vt 0.452465 0.750000
vt 0.412264 0.750000
vt 0.518629 0.750000
vt 0.489709 0.750000
vt 0.531417 0.609199
vt 0.567993 0.711504
vt 0.546871 0.750000
vt 0.581755 0.750000
vt 0.598334 0.750000
vt 0.541335 0.500000
vt 0.570296 0.500000
vt 0.607121 0.500000
vt 0.492377 0.500000
vt 0.461046 0.250000
vt 0.446168 0.177330
vt 0.525078 0.250000
vt 0.502198 0.250000
vt 0.553972 0.250000
vt 0.575166 0.163460
vt 0.606518 0.250000
vt 0.615196 0.000000
vt 0.625000 0.130093
vt 0.556325 0.111455
vt 0.515946 0.000000
vt 0.541500 0.000000
vt 0.572441 0.000000
vt 0.425819 0.906367
vt 0.409863 1.000000
vt 0.459552 0.823806
vt 0.504879 0.894551
vt 0.515946 1.000000
vt 0.478221 1.000000
vt 0.547714 0.961407
vt 0.541500 1.000000
vt 0.572441 1.000000
vt 0.615196 1.000000
vt 0.444019 0.799562
vt 0.486726 0.351080
vt 0.525537 0.399086
vt 0.526972 0.400861
vt 0.575892 0.461372
vt 0.585221 0.396988
vt 0.525169 0.396735
vt 0.540686 0.250000
vt 0.491523 0.319741
vt 0.445281 0.172996
vt 0.461034 0.090300
vt 0.496890 0.098579
vt 0.478221 0.000000
vt 0.710390 0.590192
vt 0.710390 0.612834
vt 0.710390 0.576914
s 0
usemtl Material
f 10/1/1 24/2/1 21/1/1
f 4/3/2 3/4/2 7/5/2 8/6/2
f 8/7/3 7/8/3 5/9/3 6/10/3
f 6/11/4 2/12/4 4/3/4 8/13/4
f 2/12/5 1/14/5 9/15/5 3/4/5 4/3/5
f 6/10/6 5/9/6 10/16/6 1/14/6 2/12/6
f 13/14/7 12/1/7 22/17/7 23/18/7 15/19/7 14/15/7
f 9/15/8 11/19/8 93/20/8 92/21/8 17/22/8 24/2/8 10/1/8 5/23/8 7/24/8 3/4/8
f 9/15/9 1/14/9 13/14/9 14/15/9
f 1/14/10 10/16/10 21/16/10 18/16/10 12/16/10 13/14/10
f 11/19/11 9/15/11 14/15/11 15/19/11 16/19/11 95/19/11 94/19/11
f 18/1/12 26/25/12 27/26/12 22/17/12 12/1/12
f 16/19/13 96/27/13 101/28/13 97/29/13 95/19/13
f 21/1/14 24/2/14 17/22/14 91/30/14 19/31/14 25/32/14 26/25/14 18/1/14
f 22/17/15 27/26/15 29/33/15 28/34/15 23/18/15
f 23/18/16 28/34/16 20/35/16 96/27/16 16/19/16 15/19/16
f 20/35/17 28/34/17 29/33/17 25/32/17 19/31/17
f 25/32/18 29/33/18 27/26/18 26/25/18
f 30/7/19 58/36/19 59/37/19 82/38/19 85/39/19
f 32/10/20 57/40/20 51/41/20 52/42/20 36/12/20
f 36/12/21 52/42/21 46/43/21 34/3/21
f 34/3/2 46/43/2 58/44/2 30/6/2
f 32/11/4 36/12/4 34/3/4 30/13/4 85/45/4
f 37/14/8 33/23/8 38/46/8 31/24/8 35/4/8 64/47/8
f 46/43/22 52/42/22 66/48/22 44/49/22 45/50/22
f 44/49/23 66/48/23 42/51/23 43/52/23
f 42/51/24 65/53/24 67/54/24 41/55/24
f 41/55/25 67/54/25 40/56/25
f 40/56/26 67/54/26 64/47/26 35/4/26 39/57/26
f 64/47/27 67/54/27 65/53/27 49/58/27 48/59/27 47/60/27 37/14/27
f 49/58/28 65/53/28 50/61/28
f 50/61/29 65/53/29 42/51/29 66/48/29
f 50/61/30 66/48/30 52/42/30 51/41/30
f 56/62/31 84/63/31 87/64/31 55/65/31
f 54/66/32 68/67/32 53/68/32
f 53/68/33 68/67/33 63/69/33 38/70/33 33/9/33
f 38/70/3 63/69/3 31/8/3
f 63/69/34 68/67/34 88/71/34 60/72/34 61/73/34 62/74/34
f 58/44/35 70/75/35 59/76/35
f 59/76/36 70/75/36 72/77/36 71/78/36 60/79/36 81/80/36
f 60/79/37 71/78/37 69/81/37 61/82/37
f 61/82/38 69/81/38 62/83/38
f 62/83/39 39/57/39 35/4/39 31/5/39 63/84/39
f 39/57/40 62/83/40 69/81/40 40/56/40
f 40/56/41 69/81/41 71/78/41 43/52/41 42/51/41 41/55/41
f 43/52/42 72/77/42 73/85/42 44/49/42
f 44/49/2 73/85/2 45/50/2
f 45/50/43 73/85/43 70/75/43 58/44/43 46/43/43
f 73/85/44 72/77/44 70/75/44
f 43/52/45 71/78/45 72/77/45
f 51/41/46 79/86/46 76/87/46 49/58/46 50/61/46
f 49/58/47 76/87/47 74/88/47 48/59/47
f 48/59/48 80/89/48 47/60/48
f 47/60/49 75/90/49 53/68/49 33/9/49 37/14/49
f 53/68/50 75/90/50 54/66/50
f 54/66/51 75/90/51 80/89/51 74/88/51 77/91/51 55/65/51 87/64/51 86/92/51
f 55/65/52 78/93/52 56/62/52
f 56/62/53 78/93/53 79/86/53 57/40/53
f 78/93/54 55/65/54 77/91/54
f 78/93/55 77/91/55 76/87/55 79/86/55
f 77/91/56 74/88/56 76/87/56
f 75/90/57 47/60/57 80/89/57
f 80/89/58 48/59/58 74/88/58
f 79/86/59 51/41/59 57/40/59
f 85/39/60 82/38/60 83/94/60 84/63/60
f 84/63/61 56/62/61 57/40/61 32/10/61 85/39/61
f 87/64/62 84/63/62 83/94/62 89/95/62 90/96/62
f 90/96/63 89/95/63 81/97/63
f 81/97/64 89/95/64 82/38/64 59/37/64
f 82/38/65 89/95/65 83/94/65
f 81/97/66 60/72/66 88/71/66 90/96/66
f 88/71/67 68/67/67 54/66/67 86/92/67
f 86/92/68 87/64/68 90/96/68 88/71/68
f 95/19/69 97/29/69 99/98/69 98/99/69
f 98/99/69 99/98/69 92/21/69 93/20/69
f 93/20/69 11/19/69 94/19/69 98/99/69
f 94/19/69 95/19/69 98/99/69
f 92/21/70 100/100/70 91/30/70 17/22/70
f 91/30/71 100/100/71 101/28/71 96/27/71
f 91/30/72 96/27/72 20/35/72 19/31/72
f 100/100/73 92/21/73 99/98/73
f 100/100/74 99/98/74 97/29/74 101/28/74
o Cube.001
v -11.118254 -1.339447 -14.774089
v -11.118254 49.906227 -14.774089
v -11.118254 -1.339447 -24.800167
v -11.118254 49.906227 -24.800167
v 0.066839 -1.339447 -14.774089
v 0.066839 49.906227 -14.774089
v 0.066839 -1.339447 -24.800167
v 0.066839 49.906227 -24.800167
vn -1.0000 -0.0000 -0.0000
vn -0.0000 -0.0000 -1.0000
vn 1.0000 -0.0000 -0.0000
vn -0.0000 -0.0000 1.0000
vn -0.0000 -1.0000 -0.0000
vn -0.0000 1.0000 -0.0000
vt 0.375000 0.000000
vt 0.625000 0.000000
vt 0.625000 0.250000
vt 0.375000 0.250000
vt 0.625000 0.500000
vt 0.375000 0.500000
vt 0.625000 0.750000
vt 0.375000 0.750000
vt 0.625000 1.000000
vt 0.375000 1.000000
vt 0.125000 0.500000
vt 0.125000 0.750000
vt 0.875000 0.500000
vt 0.875000 0.750000
s 0
f 102/101/75 103/102/75 105/103/75 104/104/75
f 104/104/76 105/103/76 109/105/76 108/106/76
f 108/106/77 109/105/77 107/107/77 106/108/77
f 106/108/78 107/107/78 103/109/78 102/110/78
f 104/111/79 108/106/79 106/108/79 102/112/79
f 109/105/80 105/113/80 103/114/80 107/107/80
o Cube.002
v -11.141050 35.673363 -24.728132
v -37.909958 35.992409 -24.835827
v -11.093031 44.091572 -24.810019
v -37.858932 44.272221 -25.314348
v -6.218773 35.729790 -13.995364
v -37.888557 36.169872 -15.272799
v -6.222092 44.167236 -14.016294
v -37.866280 43.995987 -15.323135
v -37.901997 35.812710 -22.194174
v -37.859699 44.257153 -20.657608
v -31.112381 44.373360 -15.214489
v -28.288813 44.334335 -15.221504
v -24.055841 44.271866 -14.893992
v -13.980657 44.186855 -14.409592
v -11.756355 44.186836 -14.331850
v -6.222820 40.738281 -14.029238
v -13.841080 36.221203 -23.902420
v -20.889732 36.551216 -24.715727
v -24.542429 36.537971 -24.008905
v -34.558693 35.907066 -25.118217
v -37.866337 43.276031 -15.313768
v -37.869621 41.278988 -15.284443
v -37.876801 40.804798 -25.280163
v -37.863174 43.069729 -25.303434
v -34.116112 35.790443 -15.068785
v -28.416906 35.839325 -14.866526
v -22.722174 36.191895 -14.728767
v -20.000252 35.813065 -15.335920
v -17.612591 35.785610 -14.495649
v -14.958918 36.074425 -15.282494
v -14.077769 35.767578 -14.320484
v -35.368954 44.339859 -25.281851
v -27.075005 44.779182 -24.531048
v -20.737900 44.095745 -25.552740
v -16.581131 44.059029 -25.165571
v -15.829793 44.044136 -25.067574
v -24.681881 41.828236 -25.303520
v -30.031584 39.001133 -24.929813
v -34.691368 41.369003 -25.215727
v -38.664185 41.835705 -21.090866
v -26.755419 43.786583 -17.622639
v -23.114225 44.912979 -21.667313
v -16.589369 44.919651 -24.513151
v -11.227505 44.178566 -14.968700
v -16.321106 38.181885 -14.093325
v -32.964832 38.567097 -14.072863
v -15.274030 36.797405 -13.825226
v -21.242313 35.880348 -22.462002
v -17.836384 35.776699 -18.121767
v -31.646111 41.916603 -13.691153
v -19.783806 40.793190 -14.198322
v -26.072630 40.585220 -14.090453
v -31.139320 44.754803 -21.712175
v -33.291931 44.659748 -20.498327
v -24.542503 44.576817 -25.325270
v -37.860001 44.102943 -17.403631
vn -0.0816 -0.0860 -0.9929
vn 0.0775 0.9970 -0.0078
vn -0.0569 -0.0038 0.9984
vn -0.0384 -0.9992 -0.0089
vn 0.9101 -0.0049 -0.4143
vn -1.0000 0.0052 -0.0010
vn 0.1083 -0.1195 -0.9869
vn 0.0164 -0.1925 -0.9812
vn -0.0122 0.0751 -0.9971
vn 0.0097 -0.0896 -0.9959
vn 0.0675 -0.0060 -0.9977
vn 0.0076 -0.0344 -0.9994
vn -0.9505 0.3059 0.0550
vn -0.9840 0.1445 -0.1045
vn -0.9926 -0.0604 -0.1057
vn -0.9954 -0.0619 0.0725
vn 0.0160 0.9978 0.0642
vn -0.0530 0.9948 0.0868
vn 0.0302 0.9785 -0.2039
vn 0.0945 0.9953 0.0199
vn -0.0632 0.9954 0.0718
vn -0.0220 0.9995 -0.0230
vn -0.0860 0.9189 -0.3850
vn 0.1151 0.6008 -0.7911
vn 0.0394 0.5588 -0.8284
vn 0.0274 0.9975 0.0653
vn -0.0269 0.0811 0.9963
vn -0.2688 -0.0168 0.9630
vn 0.0100 -0.0742 0.9972
vn -0.0264 -0.8978 0.4397
vn -0.0290 -0.1589 0.9869
vn -0.0307 -0.3261 0.9448
vn -0.1926 -0.0933 0.9768
vn -0.1862 0.1867 0.9646
vn 0.0441 0.3570 0.9331
vn -0.0252 0.0951 0.9951
vn 0.0211 -0.9918 -0.1263
vn -0.0531 -0.9548 -0.2925
vn 0.0290 -0.9992 -0.0273
vn -0.0814 -0.9967 0.0048
vn 0.0518 -0.9987 -0.0007
vn -0.1963 -0.9805 0.0019
vn 0.0099 0.2078 0.9781
vn 0.0505 -0.1637 0.9852
vn 0.0056 0.9986 0.0528
vn -0.0656 0.9971 -0.0382
vn -0.0733 0.9973 0.0024
vt 0.375000 0.000000
vt 0.400158 0.000000
vt 0.420092 0.250000
vt 0.375000 0.250000
vt 0.429544 0.333945
vt 0.412211 0.484178
vt 0.418522 0.500000
vt 0.375000 0.500000
vt 0.375000 0.601807
vt 0.375000 0.750000
vt 0.437159 0.750000
vt 0.443968 0.750000
vt 0.456629 0.837740
vt 0.400158 1.000000
vt 0.375000 1.000000
vt 0.125000 0.500000
vt 0.125000 0.750000
vt 0.625000 0.500000
vt 0.676666 0.500000
vt 0.758123 0.500000
vt 0.625000 0.528191
vt 0.465190 0.000000
vt 0.486292 0.000000
vt 0.593732 0.000000
vt 0.552838 0.080185
vt 0.509617 0.164935
vt 0.595878 0.160083
vt 0.532529 0.250000
vt 0.511965 0.250000
vt 0.470190 0.250000
vt 0.427474 0.250000
vt 0.625000 0.214146
vt 0.625000 0.250000
vt 0.602266 0.250000
vt 0.625000 0.000000
vt 0.625000 0.146861
vt 0.769612 0.571545
vt 0.875000 0.500000
vt 0.875000 0.535854
vt 0.875000 0.603139
vt 0.875000 0.750000
vt 0.798268 0.750000
vt 0.625000 0.750000
vt 0.625000 0.587095
vt 0.436087 0.500000
vt 0.496399 0.325563
vt 0.532856 0.442354
vt 0.515487 0.500000
vt 0.549293 0.500000
vt 0.569139 0.341802
vt 0.587920 0.371189
vt 0.572672 0.500000
vt 0.625000 0.448334
vt 0.454497 0.694661
vt 0.446559 0.719997
vt 0.464724 0.750000
vt 0.480125 0.612866
vt 0.531776 0.615659
vt 0.550696 0.750000
vt 0.505113 0.750000
vt 0.483447 0.750000
vt 0.588036 0.668135
vt 0.595517 0.750000
vt 0.579268 0.572178
vt 0.474750 0.942981
vt 0.465190 1.000000
vt 0.486292 1.000000
vt 0.625000 0.923268
vt 0.625000 1.000000
vt 0.593732 1.000000
vt 0.625000 0.366877
s 0
f 110/115/81 126/116/81 145/117/81 112/118/81
f 112/118/82 152/119/82 153/120/82 124/121/82 116/122/82
f 116/122/83 124/121/83 125/123/83
f 114/124/84 140/125/84 139/126/84 158/127/84 126/128/84 110/129/84
f 112/130/85 116/122/85 125/123/85 114/124/85 110/131/85
f 117/132/86 165/133/86 119/134/86 130/135/86
f 145/117/87 126/116/87 127/136/87
f 127/136/88 128/137/88 129/138/88 147/139/88 146/140/88
f 146/140/89 147/139/89 148/141/89 142/142/89
f 142/142/90 164/143/90 143/144/90 144/145/90 145/117/90 127/136/90 146/140/90
f 142/142/91 148/141/91 133/146/91 113/147/91 141/148/91
f 133/146/92 148/141/92 147/139/92 129/138/92 111/149/92 132/150/92
f 130/135/93 119/134/93 149/151/93
f 149/151/94 119/134/94 113/152/94 133/153/94 132/154/94
f 132/154/95 111/155/95 118/156/95 149/151/95
f 118/156/96 115/157/96 131/158/96 130/135/96 149/151/96
f 124/121/97 153/120/97 152/119/97 123/159/97
f 123/159/98 151/160/98 150/161/98 122/162/98
f 122/162/99 150/161/99 121/163/99
f 121/163/100 150/161/100 162/164/100 163/165/100 120/166/100
f 120/166/101 163/165/101 165/167/101 117/132/101
f 141/148/102 162/164/102 164/143/102 142/142/102
f 143/144/103 151/160/103 152/119/103 144/145/103
f 144/145/104 152/119/104 145/117/104
f 145/117/105 152/119/105 112/118/105
f 151/160/106 123/159/106 152/119/106
f 125/123/107 124/121/107 154/168/107 156/169/107
f 156/169/108 154/168/108 138/170/108
f 156/169/109 140/125/109 114/124/109 125/123/109
f 140/125/110 156/169/110 138/170/110 139/126/110
f 138/170/111 154/168/111 160/171/111 161/172/111 135/173/111 136/174/111 137/175/111
f 135/173/112 155/176/112 134/177/112
f 134/177/113 155/176/113 131/158/113 115/157/113
f 131/158/114 155/176/114 159/178/114 120/166/114 117/132/114 130/135/114
f 120/166/115 159/178/115 161/172/115 122/162/115 121/163/115
f 122/162/116 160/171/116 154/168/116 124/121/116 123/159/116
f 126/128/117 158/127/117 157/179/117 127/180/117
f 127/180/118 157/179/118 128/181/118
f 128/181/119 136/174/119 135/173/119 134/177/119 115/157/119 118/182/119 111/183/119 129/184/119
f 136/174/120 157/179/120 158/127/120 137/175/120
f 137/175/121 158/127/121 139/126/121 138/170/121
f 136/174/122 128/181/122 157/179/122
f 161/172/123 160/171/123 122/162/123
f 161/172/124 159/178/124 155/176/124 135/173/124
f 164/143/125 162/164/125 150/161/125 151/160/125 143/144/125
f 163/165/126 162/164/126 141/148/126
f 165/167/127 163/165/127 141/148/127 113/147/127 119/185/127
